<?xml version="1.0" encoding="UTF-8"?>
<!DOCTYPE svg PUBLIC "-//W3C//DTD SVG 1.1//EN" "http://www.w3.org/Graphics/SVG/1.1/DTD/svg11.dtd">
<svg width="160mm" height="90mm" viewBox="0 0 16000 9000" version="1.1" xmlns="http://www.w3.org/2000/svg" stroke-width="28.222" stroke-linejoin="round" xml:space="preserve">
 <path fill="rgb(255,255,255)" stroke="none" d="M 8066,8993 L 66,8993 66,-6 16065,-6 16065,8993 8066,8993 Z"/>
 <path fill="none" stroke="rgb(179,179,179)" stroke-linejoin="round" d="M 5695,7185 L 2124,7185 2124,1469 9266,1469 9266,7185 5695,7185 Z"/>
 <path fill="none" stroke="rgb(179,179,179)" stroke-linejoin="round" d="M 9266,7184 L 2124,7184"/>
 <path fill="none" stroke="rgb(179,179,179)" stroke-linejoin="round" d="M 9266,6231 L 2124,6231"/>
 <path fill="none" stroke="rgb(179,179,179)" stroke-linejoin="round" d="M 9266,5278 L 2124,5278"/>
 <path fill="none" stroke="rgb(179,179,179)" stroke-linejoin="round" d="M 9266,4326 L 2124,4326"/>
 <path fill="none" stroke="rgb(179,179,179)" stroke-linejoin="round" d="M 9266,3373 L 2124,3373"/>
 <path fill="none" stroke="rgb(179,179,179)" stroke-linejoin="round" d="M 9266,2420 L 2124,2420"/>
 <path fill="none" stroke="rgb(179,179,179)" stroke-linejoin="round" d="M 9266,1467 L 2124,1467"/>
 <path fill="none" stroke="rgb(179,179,179)" stroke-linejoin="round" d="M 2124,7334 L 2124,7184"/>
 <path fill="none" stroke="rgb(179,179,179)" stroke-linejoin="round" d="M 2124,7334 L 2124,7184"/>
 <path fill="none" stroke="rgb(179,179,179)" stroke-linejoin="round" d="M 3016,7334 L 3016,7184"/>
 <path fill="none" stroke="rgb(179,179,179)" stroke-linejoin="round" d="M 3016,7334 L 3016,7184"/>
 <path fill="none" stroke="rgb(179,179,179)" stroke-linejoin="round" d="M 3909,7334 L 3909,7184"/>
 <path fill="none" stroke="rgb(179,179,179)" stroke-linejoin="round" d="M 3909,7334 L 3909,7184"/>
 <path fill="none" stroke="rgb(179,179,179)" stroke-linejoin="round" d="M 4802,7334 L 4802,7184"/>
 <path fill="none" stroke="rgb(179,179,179)" stroke-linejoin="round" d="M 4802,7334 L 4802,7184"/>
 <path fill="none" stroke="rgb(179,179,179)" stroke-linejoin="round" d="M 5695,7334 L 5695,7184"/>
 <path fill="none" stroke="rgb(179,179,179)" stroke-linejoin="round" d="M 5695,7334 L 5695,7184"/>
 <path fill="none" stroke="rgb(179,179,179)" stroke-linejoin="round" d="M 6588,7334 L 6588,7184"/>
 <path fill="none" stroke="rgb(179,179,179)" stroke-linejoin="round" d="M 6588,7334 L 6588,7184"/>
 <path fill="none" stroke="rgb(179,179,179)" stroke-linejoin="round" d="M 7481,7334 L 7481,7184"/>
 <path fill="none" stroke="rgb(179,179,179)" stroke-linejoin="round" d="M 7481,7334 L 7481,7184"/>
 <path fill="none" stroke="rgb(179,179,179)" stroke-linejoin="round" d="M 8373,7334 L 8373,7184"/>
 <path fill="none" stroke="rgb(179,179,179)" stroke-linejoin="round" d="M 8373,7334 L 8373,7184"/>
 <path fill="none" stroke="rgb(179,179,179)" stroke-linejoin="round" d="M 9266,7334 L 9266,7184"/>
 <path fill="none" stroke="rgb(179,179,179)" stroke-linejoin="round" d="M 9266,7334 L 9266,7184"/>
 <path fill="none" stroke="rgb(179,179,179)" stroke-linejoin="round" d="M 2124,7184 L 9266,7184"/>
 <path fill="none" stroke="rgb(179,179,179)" stroke-linejoin="round" d="M 1974,7184 L 2124,7184"/>
 <path fill="none" stroke="rgb(179,179,179)" stroke-linejoin="round" d="M 1974,7184 L 2124,7184"/>
 <path fill="none" stroke="rgb(179,179,179)" stroke-linejoin="round" d="M 1974,6231 L 2124,6231"/>
 <path fill="none" stroke="rgb(179,179,179)" stroke-linejoin="round" d="M 1974,6231 L 2124,6231"/>
 <path fill="none" stroke="rgb(179,179,179)" stroke-linejoin="round" d="M 1974,5278 L 2124,5278"/>
 <path fill="none" stroke="rgb(179,179,179)" stroke-linejoin="round" d="M 1974,5278 L 2124,5278"/>
 <path fill="none" stroke="rgb(179,179,179)" stroke-linejoin="round" d="M 1974,4326 L 2124,4326"/>
 <path fill="none" stroke="rgb(179,179,179)" stroke-linejoin="round" d="M 1974,4326 L 2124,4326"/>
 <path fill="none" stroke="rgb(179,179,179)" stroke-linejoin="round" d="M 1974,3373 L 2124,3373"/>
 <path fill="none" stroke="rgb(179,179,179)" stroke-linejoin="round" d="M 1974,3373 L 2124,3373"/>
 <path fill="none" stroke="rgb(179,179,179)" stroke-linejoin="round" d="M 1974,2420 L 2124,2420"/>
 <path fill="none" stroke="rgb(179,179,179)" stroke-linejoin="round" d="M 1974,2420 L 2124,2420"/>
 <path fill="none" stroke="rgb(179,179,179)" stroke-linejoin="round" d="M 1974,1467 L 2124,1467"/>
 <path fill="none" stroke="rgb(179,179,179)" stroke-linejoin="round" d="M 1974,1467 L 2124,1467"/>
 <path fill="none" stroke="rgb(179,179,179)" stroke-linejoin="round" d="M 2124,7184 L 2124,1468"/>
 <path fill="none" stroke="rgb(87,157,28)" stroke-width="80" stroke-linejoin="round" d="M 2463,4356 L 2516,4190 2963,3453 3409,3149 4302,2879 5641,2715 6534,2659 7427,2620 8587,2585"/>
 <path fill="rgb(87,157,28)" stroke="none" d="M 2338,4481 L 2588,4481 2463,4231 2338,4481 Z"/>
 <path fill="none" stroke="rgb(87,157,28)" stroke-linejoin="round" d="M 2338,4481 L 2588,4481 2463,4231 2338,4481 Z"/>
 <path fill="rgb(87,157,28)" stroke="none" d="M 2391,4315 L 2641,4315 2516,4065 2391,4315 Z"/>
 <path fill="none" stroke="rgb(87,157,28)" stroke-linejoin="round" d="M 2391,4315 L 2641,4315 2516,4065 2391,4315 Z"/>
 <path fill="rgb(87,157,28)" stroke="none" d="M 2838,3578 L 3088,3578 2963,3328 2838,3578 Z"/>
 <path fill="none" stroke="rgb(87,157,28)" stroke-linejoin="round" d="M 2838,3578 L 3088,3578 2963,3328 2838,3578 Z"/>
 <path fill="rgb(87,157,28)" stroke="none" d="M 3284,3274 L 3534,3274 3409,3024 3284,3274 Z"/>
 <path fill="none" stroke="rgb(87,157,28)" stroke-linejoin="round" d="M 3284,3274 L 3534,3274 3409,3024 3284,3274 Z"/>
 <path fill="rgb(87,157,28)" stroke="none" d="M 4177,3004 L 4427,3004 4302,2754 4177,3004 Z"/>
 <path fill="none" stroke="rgb(87,157,28)" stroke-linejoin="round" d="M 4177,3004 L 4427,3004 4302,2754 4177,3004 Z"/>
 <path fill="rgb(87,157,28)" stroke="none" d="M 5516,2840 L 5766,2840 5641,2590 5516,2840 Z"/>
 <path fill="none" stroke="rgb(87,157,28)" stroke-linejoin="round" d="M 5516,2840 L 5766,2840 5641,2590 5516,2840 Z"/>
 <path fill="rgb(87,157,28)" stroke="none" d="M 6409,2784 L 6659,2784 6534,2534 6409,2784 Z"/>
 <path fill="none" stroke="rgb(87,157,28)" stroke-linejoin="round" d="M 6409,2784 L 6659,2784 6534,2534 6409,2784 Z"/>
 <path fill="rgb(87,157,28)" stroke="none" d="M 7302,2745 L 7552,2745 7427,2495 7302,2745 Z"/>
 <path fill="none" stroke="rgb(87,157,28)" stroke-linejoin="round" d="M 7302,2745 L 7552,2745 7427,2495 7302,2745 Z"/>
 <path fill="rgb(87,157,28)" stroke="none" d="M 8462,2710 L 8712,2710 8587,2460 8462,2710 Z"/>
 <path fill="none" stroke="rgb(87,157,28)" stroke-linejoin="round" d="M 8462,2710 L 8712,2710 8587,2460 8462,2710 Z"/>
 <path fill="none" stroke="rgb(255,66,14)" stroke-width="80" stroke-linejoin="round" d="M 2463,4631 L 2516,4462 2963,3657 3409,3311 4302,2987 5641,2789 6534,2715 7427,2670 8587,2630"/>
 <path fill="rgb(255,66,14)" stroke="none" d="M 2338,4631 L 2463,4756 2588,4631 2463,4506 2338,4631 Z"/>
 <path fill="none" stroke="rgb(255,66,14)" stroke-linejoin="round" d="M 2338,4631 L 2463,4756 2588,4631 2463,4506 2338,4631 Z"/>
 <path fill="rgb(255,66,14)" stroke="none" d="M 2391,4462 L 2516,4586 2641,4462 2516,4337 2391,4462 Z"/>
 <path fill="none" stroke="rgb(255,66,14)" stroke-linejoin="round" d="M 2391,4462 L 2516,4586 2641,4462 2516,4337 2391,4462 Z"/>
 <path fill="rgb(255,66,14)" stroke="none" d="M 2838,3657 L 2963,3782 3088,3657 2963,3532 2838,3657 Z"/>
 <path fill="none" stroke="rgb(255,66,14)" stroke-linejoin="round" d="M 2838,3657 L 2963,3782 3088,3657 2963,3532 2838,3657 Z"/>
 <path fill="rgb(255,66,14)" stroke="none" d="M 3284,3311 L 3409,3436 3534,3311 3409,3186 3284,3311 Z"/>
 <path fill="none" stroke="rgb(255,66,14)" stroke-linejoin="round" d="M 3284,3311 L 3409,3436 3534,3311 3409,3186 3284,3311 Z"/>
 <path fill="rgb(255,66,14)" stroke="none" d="M 4177,2987 L 4302,3112 4427,2987 4302,2862 4177,2987 Z"/>
 <path fill="none" stroke="rgb(255,66,14)" stroke-linejoin="round" d="M 4177,2987 L 4302,3112 4427,2987 4302,2862 4177,2987 Z"/>
 <path fill="rgb(255,66,14)" stroke="none" d="M 5516,2789 L 5641,2914 5766,2789 5641,2664 5516,2789 Z"/>
 <path fill="none" stroke="rgb(255,66,14)" stroke-linejoin="round" d="M 5516,2789 L 5641,2914 5766,2789 5641,2664 5516,2789 Z"/>
 <path fill="rgb(255,66,14)" stroke="none" d="M 6409,2715 L 6534,2840 6659,2715 6534,2590 6409,2715 Z"/>
 <path fill="none" stroke="rgb(255,66,14)" stroke-linejoin="round" d="M 6409,2715 L 6534,2840 6659,2715 6534,2590 6409,2715 Z"/>
 <path fill="rgb(255,66,14)" stroke="none" d="M 7302,2670 L 7427,2795 7552,2670 7427,2545 7302,2670 Z"/>
 <path fill="none" stroke="rgb(255,66,14)" stroke-linejoin="round" d="M 7302,2670 L 7427,2795 7552,2670 7427,2545 7302,2670 Z"/>
 <path fill="rgb(255,66,14)" stroke="none" d="M 8462,2630 L 8587,2755 8712,2630 8587,2505 8462,2630 Z"/>
 <path fill="none" stroke="rgb(255,66,14)" stroke-linejoin="round" d="M 8462,2630 L 8587,2755 8712,2630 8587,2505 8462,2630 Z"/>
 <path fill="none" stroke="rgb(255,211,32)" stroke-width="80" stroke-linejoin="round" d="M 2463,5278 L 2516,5108 2963,4219 3409,3771 4302,3323 5641,3022 6534,2913 7427,2837 8310,2782"/>
 <path fill="rgb(255,211,32)" stroke="none" d="M 2338,5153 L 2463,5403 2588,5153 2338,5153 Z"/>
 <path fill="none" stroke="rgb(255,211,32)" stroke-linejoin="round" d="M 2338,5153 L 2463,5403 2588,5153 2338,5153 Z"/>
 <path fill="rgb(255,211,32)" stroke="none" d="M 2391,4983 L 2516,5233 2641,4983 2391,4983 Z"/>
 <path fill="none" stroke="rgb(255,211,32)" stroke-linejoin="round" d="M 2391,4983 L 2516,5233 2641,4983 2391,4983 Z"/>
 <path fill="rgb(255,211,32)" stroke="none" d="M 2838,4094 L 2963,4344 3088,4094 2838,4094 Z"/>
 <path fill="none" stroke="rgb(255,211,32)" stroke-linejoin="round" d="M 2838,4094 L 2963,4344 3088,4094 2838,4094 Z"/>
 <path fill="rgb(255,211,32)" stroke="none" d="M 3284,3646 L 3409,3896 3534,3646 3284,3646 Z"/>
 <path fill="none" stroke="rgb(255,211,32)" stroke-linejoin="round" d="M 3284,3646 L 3409,3896 3534,3646 3284,3646 Z"/>
 <path fill="rgb(255,211,32)" stroke="none" d="M 4177,3198 L 4302,3448 4427,3198 4177,3198 Z"/>
 <path fill="none" stroke="rgb(255,211,32)" stroke-linejoin="round" d="M 4177,3198 L 4302,3448 4427,3198 4177,3198 Z"/>
 <path fill="rgb(255,211,32)" stroke="none" d="M 5516,2897 L 5641,3147 5766,2897 5516,2897 Z"/>
 <path fill="none" stroke="rgb(255,211,32)" stroke-linejoin="round" d="M 5516,2897 L 5641,3147 5766,2897 5516,2897 Z"/>
 <path fill="rgb(255,211,32)" stroke="none" d="M 6409,2788 L 6534,3038 6659,2788 6409,2788 Z"/>
 <path fill="none" stroke="rgb(255,211,32)" stroke-linejoin="round" d="M 6409,2788 L 6534,3038 6659,2788 6409,2788 Z"/>
 <path fill="rgb(255,211,32)" stroke="none" d="M 7302,2712 L 7427,2962 7552,2712 7302,2712 Z"/>
 <path fill="none" stroke="rgb(255,211,32)" stroke-linejoin="round" d="M 7302,2712 L 7427,2962 7552,2712 7302,2712 Z"/>
 <path fill="rgb(255,211,32)" stroke="none" d="M 8185,2657 L 8310,2907 8435,2657 8185,2657 Z"/>
 <path fill="none" stroke="rgb(255,211,32)" stroke-linejoin="round" d="M 8185,2657 L 8310,2907 8435,2657 8185,2657 Z"/>
 <path fill="none" stroke="rgb(0,69,134)" stroke-width="80" stroke-linejoin="round" d="M 2463,5794 L 2516,5635 2963,4541 3409,4031 4302,3538 5641,3118 6534,3033 7427,2976 8310,2823"/>
 <path fill="rgb(0,69,134)" stroke="none" d="M 2338,5669 L 2338,5919 2588,5919 2588,5669 2338,5669 Z"/>
 <path fill="none" stroke="rgb(0,69,134)" stroke-linejoin="round" d="M 2338,5669 L 2338,5919 2588,5919 2588,5669 2338,5669 Z"/>
 <path fill="rgb(0,69,134)" stroke="none" d="M 2391,5510 L 2391,5760 2641,5760 2641,5510 2391,5510 Z"/>
 <path fill="none" stroke="rgb(0,69,134)" stroke-linejoin="round" d="M 2391,5510 L 2391,5760 2641,5760 2641,5510 2391,5510 Z"/>
 <path fill="rgb(0,69,134)" stroke="none" d="M 2838,4417 L 2838,4666 3088,4666 3088,4417 2838,4417 Z"/>
 <path fill="none" stroke="rgb(0,69,134)" stroke-linejoin="round" d="M 2838,4417 L 2838,4666 3088,4666 3088,4417 2838,4417 Z"/>
 <path fill="rgb(0,69,134)" stroke="none" d="M 3284,3906 L 3284,4156 3534,4156 3534,3906 3284,3906 Z"/>
 <path fill="none" stroke="rgb(0,69,134)" stroke-linejoin="round" d="M 3284,3906 L 3284,4156 3534,4156 3534,3906 3284,3906 Z"/>
 <path fill="rgb(0,69,134)" stroke="none" d="M 4177,3413 L 4177,3663 4427,3663 4427,3413 4177,3413 Z"/>
 <path fill="none" stroke="rgb(0,69,134)" stroke-linejoin="round" d="M 4177,3413 L 4177,3663 4427,3663 4427,3413 4177,3413 Z"/>
 <path fill="rgb(0,69,134)" stroke="none" d="M 5516,2993 L 5516,3243 5766,3243 5766,2993 5516,2993 Z"/>
 <path fill="none" stroke="rgb(0,69,134)" stroke-linejoin="round" d="M 5516,2993 L 5516,3243 5766,3243 5766,2993 5516,2993 Z"/>
 <path fill="rgb(0,69,134)" stroke="none" d="M 6409,2908 L 6409,3158 6659,3158 6659,2908 6409,2908 Z"/>
 <path fill="none" stroke="rgb(0,69,134)" stroke-linejoin="round" d="M 6409,2908 L 6409,3158 6659,3158 6659,2908 6409,2908 Z"/>
 <path fill="rgb(0,69,134)" stroke="none" d="M 7302,2851 L 7302,3101 7552,3101 7552,2851 7302,2851 Z"/>
 <path fill="none" stroke="rgb(0,69,134)" stroke-linejoin="round" d="M 7302,2851 L 7302,3101 7552,3101 7552,2851 7302,2851 Z"/>
 <path fill="rgb(0,69,134)" stroke="none" d="M 8185,2698 L 8185,2948 8435,2948 8435,2698 8185,2698 Z"/>
 <path fill="none" stroke="rgb(0,69,134)" stroke-linejoin="round" d="M 8185,2698 L 8185,2948 8435,2948 8435,2698 8185,2698 Z"/>
 <text class="TextShape"><tspan class="TextParagraph" font-family="Liberation Sans, sans-serif" font-size="353px" font-weight="400"><tspan class="TextPosition" x="2031" y="7752"><tspan fill="rgb(0,0,0)" stroke="none">0</tspan></tspan></tspan></text>
 <text class="TextShape"><tspan class="TextParagraph" font-family="Liberation Sans, sans-serif" font-size="353px" font-weight="400"><tspan class="TextPosition" x="2738" y="7752"><tspan fill="rgb(0,0,0)" stroke="none">200</tspan></tspan></tspan></text>
 <text class="TextShape"><tspan class="TextParagraph" font-family="Liberation Sans, sans-serif" font-size="353px" font-weight="400"><tspan class="TextPosition" x="3631" y="7752"><tspan fill="rgb(0,0,0)" stroke="none">400</tspan></tspan></tspan></text>
 <text class="TextShape"><tspan class="TextParagraph" font-family="Liberation Sans, sans-serif" font-size="353px" font-weight="400"><tspan class="TextPosition" x="4524" y="7752"><tspan fill="rgb(0,0,0)" stroke="none">600</tspan></tspan></tspan></text>
 <text class="TextShape"><tspan class="TextParagraph" font-family="Liberation Sans, sans-serif" font-size="353px" font-weight="400"><tspan class="TextPosition" x="5417" y="7752"><tspan fill="rgb(0,0,0)" stroke="none">800</tspan></tspan></tspan></text>
 <text class="TextShape"><tspan class="TextParagraph" font-family="Liberation Sans, sans-serif" font-size="353px" font-weight="400"><tspan class="TextPosition" x="6217" y="7752"><tspan fill="rgb(0,0,0)" stroke="none">1000</tspan></tspan></tspan></text>
 <text class="TextShape"><tspan class="TextParagraph" font-family="Liberation Sans, sans-serif" font-size="353px" font-weight="400"><tspan class="TextPosition" x="7110" y="7752"><tspan fill="rgb(0,0,0)" stroke="none">1200</tspan></tspan></tspan></text>
 <text class="TextShape"><tspan class="TextParagraph" font-family="Liberation Sans, sans-serif" font-size="353px" font-weight="400"><tspan class="TextPosition" x="8003" y="7752"><tspan fill="rgb(0,0,0)" stroke="none">1400</tspan></tspan></tspan></text>
 <text class="TextShape"><tspan class="TextParagraph" font-family="Liberation Sans, sans-serif" font-size="353px" font-weight="400"><tspan class="TextPosition" x="8896" y="7752"><tspan fill="rgb(0,0,0)" stroke="none">1600</tspan></tspan></tspan></text>
 <text class="TextShape"><tspan class="TextParagraph" font-family="Liberation Sans, sans-serif" font-size="353px" font-weight="400"><tspan class="TextPosition" x="1689" y="7305"><tspan fill="rgb(0,0,0)" stroke="none">0</tspan></tspan></tspan></text>
 <text class="TextShape"><tspan class="TextParagraph" font-family="Liberation Sans, sans-serif" font-size="353px" font-weight="400"><tspan class="TextPosition" x="1398" y="6352"><tspan fill="rgb(0,0,0)" stroke="none">0,2</tspan></tspan></tspan></text>
 <text class="TextShape"><tspan class="TextParagraph" font-family="Liberation Sans, sans-serif" font-size="353px" font-weight="400"><tspan class="TextPosition" x="1398" y="5399"><tspan fill="rgb(0,0,0)" stroke="none">0,4</tspan></tspan></tspan></text>
 <text class="TextShape"><tspan class="TextParagraph" font-family="Liberation Sans, sans-serif" font-size="353px" font-weight="400"><tspan class="TextPosition" x="1398" y="4446"><tspan fill="rgb(0,0,0)" stroke="none">0,6</tspan></tspan></tspan></text>
 <text class="TextShape"><tspan class="TextParagraph" font-family="Liberation Sans, sans-serif" font-size="353px" font-weight="400"><tspan class="TextPosition" x="1398" y="3493"><tspan fill="rgb(0,0,0)" stroke="none">0,8</tspan></tspan></tspan></text>
 <text class="TextShape"><tspan class="TextParagraph" font-family="Liberation Sans, sans-serif" font-size="353px" font-weight="400"><tspan class="TextPosition" x="1689" y="2540"><tspan fill="rgb(0,0,0)" stroke="none">1</tspan></tspan></tspan></text>
 <text class="TextShape"><tspan class="TextParagraph" font-family="Liberation Sans, sans-serif" font-size="353px" font-weight="400"><tspan class="TextPosition" x="1398" y="1587"><tspan fill="rgb(0,0,0)" stroke="none">1,2</tspan></tspan></tspan></text>
 <text class="TextShape"><tspan class="TextParagraph" font-family="Liberation Sans, sans-serif" font-size="459px" font-weight="400"><tspan class="TextPosition" x="5076" y="845"><tspan fill="rgb(0,0,0)" stroke="none">IPSEC VPN TCP/IP Overhead</tspan></tspan></tspan></text>
 <path fill="none" stroke="rgb(0,69,134)" stroke-width="80" stroke-linejoin="round" d="M 10074,2753 L 10874,2753"/>
 <path fill="rgb(0,69,134)" stroke="none" d="M 10368,2648 L 10368,2859 10579,2859 10579,2648 10368,2648 Z"/>
 <path fill="none" stroke="rgb(0,69,134)" stroke-linejoin="round" d="M 10368,2648 L 10368,2859 10579,2859 10579,2648 10368,2648 Z"/>
 <path fill="none" stroke="rgb(255,211,32)" stroke-width="80" stroke-linejoin="round" d="M 10074,4442 L 10874,4442"/>
 <path fill="rgb(255,211,32)" stroke="none" d="M 10368,4337 L 10474,4547 10579,4337 10368,4337 Z"/>
 <path fill="none" stroke="rgb(255,211,32)" stroke-linejoin="round" d="M 10368,4337 L 10474,4547 10579,4337 10368,4337 Z"/>
 <path fill="none" stroke="rgb(255,66,14)" stroke-width="80" stroke-linejoin="round" d="M 10074,5733 L 10874,5733"/>
 <path fill="rgb(255,66,14)" stroke="none" d="M 10368,5733 L 10474,5839 10579,5733 10474,5628 10368,5733 Z"/>
 <path fill="none" stroke="rgb(255,66,14)" stroke-linejoin="round" d="M 10368,5733 L 10474,5839 10579,5733 10474,5628 10368,5733 Z"/>
 <path fill="none" stroke="rgb(87,157,28)" stroke-width="80" stroke-linejoin="round" d="M 10074,6231 L 10874,6231"/>
 <path fill="rgb(87,157,28)" stroke="none" d="M 10368,6337 L 10579,6337 10474,6126 10368,6337 Z"/>
 <path fill="none" stroke="rgb(87,157,28)" stroke-linejoin="round" d="M 10368,6337 L 10579,6337 10474,6126 10368,6337 Z"/>
 <text class="TextShape"><tspan class="TextParagraph" font-family="Liberation Sans, sans-serif" font-size="353px" font-weight="400"><tspan class="TextPosition" x="10974" y="2873"><tspan fill="rgb(0,0,0)" stroke="none">Verhältnis Übertragungs</tspan><tspan fill="rgb(0,0,0)" stroke="none">-</tspan></tspan><tspan class="TextPosition" x="10974" y="3270"><tspan fill="rgb(0,0,0)" stroke="none">geschwindigkeit zu</tspan></tspan></tspan><tspan class="TextParagraph" font-family="Liberation Sans, sans-serif" font-size="353px" font-weight="400"><tspan class="TextPosition" x="10974" y="3667"><tspan fill="rgb(0,0,0)" stroke="none">maximaler Geschwindigkeit </tspan></tspan><tspan class="TextPosition" x="10974" y="4064"><tspan fill="rgb(0,0,0)" stroke="none">(Messung)</tspan></tspan></tspan></text>
 <text class="TextShape"><tspan class="TextParagraph" font-family="Liberation Sans, sans-serif" font-size="353px" font-weight="400"><tspan class="TextPosition" x="10974" y="4561"><tspan fill="rgb(0,0,0)" stroke="none">Anteil Payload zu Gesamtpa</tspan><tspan fill="rgb(0,0,0)" stroke="none">-</tspan></tspan><tspan class="TextPosition" x="10974" y="4958"><tspan fill="rgb(0,0,0)" stroke="none">ketgröße inkl. Overhead (Theo</tspan><tspan fill="rgb(0,0,0)" stroke="none">-</tspan></tspan><tspan class="TextPosition" x="10974" y="5355"><tspan fill="rgb(0,0,0)" stroke="none">retisch)</tspan></tspan></tspan></text>
 <text class="TextShape"><tspan class="TextParagraph" font-family="Liberation Sans, sans-serif" font-size="353px" font-weight="400"><tspan class="TextPosition" x="10974" y="5853"><tspan fill="rgb(0,0,0)" stroke="none">ohne crypto (Messung)</tspan></tspan></tspan></text>
 <text class="TextShape"><tspan class="TextParagraph" font-family="Liberation Sans, sans-serif" font-size="353px" font-weight="400"><tspan class="TextPosition" x="10974" y="6351"><tspan fill="rgb(0,0,0)" stroke="none">ohne crypto (Theoretisch)</tspan></tspan></tspan></text>
 <text class="TextShape"><tspan class="TextParagraph" font-family="Liberation Sans, sans-serif" font-size="318px" font-weight="400"><tspan class="TextPosition" x="5174" y="8399"><tspan fill="rgb(0,0,0)" stroke="none">MSS</tspan></tspan></tspan></text>
 <text class="TextShape" transform="translate(903,5833) rotate(-90) translate(-903,-5833)"><tspan class="TextParagraph" font-family="Liberation Sans, sans-serif" font-size="318px" font-weight="400"><tspan class="TextPosition" x="903" y="5833"><tspan fill="rgb(0,0,0)" stroke="none">Protokoll Effizienz</tspan></tspan></tspan></text>
</svg>